<svg width="38" height="38" fill="none" xmlns="http://www.w3.org/2000/svg"><g clip-path="url(#clip0)" fill="#1F9FFC"><path d="M36.248 8.906h-5.75c-.614 0-1.112.499-1.112 1.114v7.867h-4.637c-.614 0-1.113.498-1.113 1.113v5.123h-3.523v-5.197c0-.615-.498-1.113-1.113-1.113h-5.75c-.614 0-1.113.498-1.113 1.113v5.197H7.501c-.615 0-1.113.498-1.113 1.113v4.566H2.865V6.68a1.113 1.113 0 00-2.227 0v30.207C.638 37.5 1.137 38 1.752 38h34.496c.615 0 1.114-.498 1.114-1.113V10.02c0-.615-.499-1.114-1.114-1.114zM2.865 32.03h3.523v3.744H2.865v-3.745zm5.75-5.68h3.522v9.424H8.614V26.35zm5.749-6.31h3.523v15.734h-3.523V20.04zm5.75 6.31h3.522v9.424h-3.523V26.35zm5.749-6.236h3.523v15.66h-3.523v-15.66zm5.75 15.66v-24.64h3.522v24.64h-3.523z"/><path d="M6.953 16.315l6.778-6.777 6.482 5.157c.443.352 1.08.316 1.48-.084L32.503 3.8v.954a1.113 1.113 0 002.227 0V1.113c0-.613-.497-1.108-1.104-1.112L33.616 0h-3.641a1.113 1.113 0 000 2.227h.954L20.822 12.334l-6.483-5.158a1.113 1.113 0 00-1.48.084l-7.48 7.48a1.113 1.113 0 101.574 1.575z"/></g><defs><clipPath id="clip0"><path fill="#fff" d="M0 0h38v38H0z"/></clipPath></defs></svg>