<svg width="38" height="38" fill="none" xmlns="http://www.w3.org/2000/svg"><g clip-path="url(#clip0)" fill="#1F9FFC"><path d="M26.125 26.681a.742.742 0 100 1.485.742.742 0 000-1.485zM19.742 13.62a.742.742 0 10-1.484 0 .742.742 0 001.484 0zm-7.867 14.546a.742.742 0 100-1.485.742.742 0 000 1.485z"/><path d="M37.559 31.693l-4.012-1.783V13.62a.746.746 0 00-.456-.686L19.742 7.193V1.744a.742.742 0 00-1.484 0v5.449L4.909 12.934a.747.747 0 00-.456.685v16.29L.441 31.694a.742.742 0 00.603 1.356L5.2 31.202l13.507 5.81a.754.754 0 00.586 0l13.507-5.81 4.156 1.847a.742.742 0 10.603-1.356zM18.258 8.809v1.841a.742.742 0 001.484 0V8.81l11.184 4.81L19 18.75 7.074 13.62l11.184-4.81zM9.84 28.329a.743.743 0 00-.98-.378l-2.924 1.3V14.745l12.32 5.3v15.157L7.049 30.38l2.416-1.073a.743.743 0 00.377-.98zm9.901 6.874V20.045l12.32-5.299V29.25l-2.923-1.299a.742.742 0 10-.603 1.357l2.416 1.073-11.21 4.822z"/></g><defs><clipPath id="clip0"><path fill="#fff" d="M0 0h38v37.926H0z"/></clipPath></defs></svg>