<svg width="37" height="38" fill="none" xmlns="http://www.w3.org/2000/svg"><path d="M36.978 14.64l-4.567-.467a14.206 14.206 0 00-.567-1.37l2.9-3.558a1.138 1.138 0 00-.078-1.524l-4.461-4.46a1.138 1.138 0 00-1.524-.078l-2.99 2.435a1.212 1.212 0 01-1.234.167l-.027-.01a1.21 1.21 0 01-.751-.99L23.287.948a1.138 1.138 0 00-1.132-1.022h-6.31c-.583 0-1.072.441-1.132 1.022l-.392 3.837a1.21 1.21 0 01-.753.99l-.026.01c-.42.175-.892.11-1.233-.167l-2.99-2.436a1.138 1.138 0 00-1.523.078L3.334 7.721a1.138 1.138 0 00-.077 1.524l2.435 2.99c.278.34.342.813.169 1.231l-.013.03a1.21 1.21 0 01-.99.751l-3.836.392A1.14 1.14 0 000 15.771v6.31c0 .583.442 1.072 1.022 1.131l3.837.393c.437.044.816.332.99.752l.01.027c.175.42.111.892-.167 1.233l-2.435 2.99a1.138 1.138 0 00.077 1.523l4.462 4.462c.412.412 1.07.446 1.523.077l2.99-2.436c.34-.277.813-.341 1.233-.167l.028.011c.419.173.707.552.751.99l.392 3.836a1.14 1.14 0 001.132 1.023h6.31a1.14 1.14 0 001.132-1.023l.392-3.836a1.21 1.21 0 01.752-.99l.027-.011a1.21 1.21 0 011.233.167l2.99 2.436a1.138 1.138 0 001.523-.077l4.462-4.462a1.138 1.138 0 00.077-1.523l-2.435-2.99a1.213 1.213 0 01-.167-1.235l.01-.026a1.21 1.21 0 01.99-.752l3.837-.392A1.138 1.138 0 0038 22.08v-6.309c0-.584-.442-1.073-1.022-1.132zm-1.254 6.413l-2.814.287a3.483 3.483 0 00-2.862 2.146l-.01.024a3.484 3.484 0 00.505 3.544l1.787 2.194-3.008 3.007-2.193-1.786a3.484 3.484 0 00-3.543-.506l-.025.01a3.482 3.482 0 00-2.146 2.863l-.288 2.814h-4.254l-.287-2.814a3.48 3.48 0 00-2.145-2.861l-.026-.011a3.485 3.485 0 00-3.544.505l-2.193 1.786-3.008-3.008 1.787-2.192a3.484 3.484 0 00.505-3.543l-.01-.025A3.483 3.483 0 005.09 21.34l-2.814-.287v-4.254l2.814-.287a3.482 3.482 0 002.862-2.147l.01-.024a3.484 3.484 0 00-.505-3.544L5.67 8.604l3.008-3.008 2.193 1.787c.992.807 2.35 1 3.544.505l.024-.01a3.482 3.482 0 002.147-2.862l.287-2.814h4.254l.288 2.814a3.482 3.482 0 002.146 2.862l.024.01a3.485 3.485 0 003.544-.505l2.193-1.787 3.008 3.008-2.72 3.338a1.138 1.138 0 00-.116 1.264 11.8 11.8 0 01.971 2.344c.13.444.517.764.977.811l4.282.438v4.254z" fill="#1F9FFC"/></svg>