<svg width="46" height="50" fill="none" xmlns="http://www.w3.org/2000/svg"><path d="M44.965 17.87c.458-1.412.774-3.487-.296-5.347-.846-1.468-2.803-3.216-7.344-3.216-1.682 0-3.604.244-5.668.724a30.2 30.2 0 00-.714-2.085c-.897-2.34-1.957-4.2-3.165-5.535C26.79 1.31 25.148 0 23.003 0c-2.146 0-3.787 1.31-4.781 2.41-1.208 1.336-2.274 3.197-3.166 5.536-.254.663-.489 1.36-.713 2.085-2.064-.474-3.986-.724-5.668-.724-4.536 0-6.498 1.748-7.344 3.216-1.07 1.86-.75 3.935-.296 5.346.556 1.713 1.636 3.563 3.216 5.505.439.54.918 1.086 1.422 1.626a33.79 33.79 0 00-1.422 1.626c-1.58 1.942-2.665 3.792-3.216 5.504-.459 1.412-.775 3.487.296 5.347.846 1.468 2.803 3.216 7.344 3.216 1.682 0 3.604-.244 5.668-.724.22.724.459 1.422.713 2.085.898 2.34 1.958 4.2 3.166 5.535.994 1.101 2.63 2.411 4.78 2.411 2.151 0 3.788-1.31 4.781-2.41 1.208-1.336 2.274-3.197 3.166-5.536.254-.663.489-1.36.713-2.085 2.064.474 3.986.724 5.668.724 4.536 0 6.498-1.748 7.34-3.216 1.07-1.86.748-3.935.295-5.346-.556-1.713-1.636-3.563-3.216-5.505A31.124 31.124 0 0040.327 25c.504-.54.978-1.086 1.422-1.626 1.58-1.942 2.66-3.792 3.216-5.505zM8.675 37.124c-2.176 0-3.725-.52-4.25-1.432-.755-1.31.24-3.924 2.599-6.82.377-.458.78-.922 1.208-1.386a50.828 50.828 0 004.399 3.507c.188 1.921.468 3.772.835 5.515-1.768.407-3.389.616-4.79.616zm3.68-10.81c-.54-.433-1.06-.872-1.56-1.315.5-.443 1.02-.882 1.56-1.315a56.524 56.524 0 000 2.63zM12.63 19a51.658 51.658 0 00-4.398 3.507 29.91 29.91 0 01-1.208-1.387c-2.355-2.895-3.354-5.51-2.6-6.82.526-.906 2.075-1.431 4.251-1.431 1.402 0 3.023.209 4.786.611a52.695 52.695 0 00-.83 5.52zm16.825-2.574a60.63 60.63 0 00-1.131-.668c-.367-.214-.74-.418-1.112-.621a44.687 44.687 0 011.892-.678c.127.637.244 1.294.351 1.967zM18.39 9.22c1.335-3.486 3.099-5.652 4.613-5.652 1.513 0 3.277 2.166 4.612 5.652.214.566.418 1.157.607 1.769a52.583 52.583 0 00-5.22 2.038 52.59 52.59 0 00-5.219-2.038c.189-.612.393-1.203.607-1.769zm-1.483 5.24c.622.209 1.253.433 1.89.678a60.957 60.957 0 00-2.243 1.29c.103-.674.22-1.331.353-1.968zm-.357 19.113a60.63 60.63 0 002.243 1.29c-.638.244-1.264.468-1.891.677a50.69 50.69 0 01-.352-1.967zm11.065 7.207c-1.335 3.486-3.099 5.652-4.612 5.652-1.514 0-3.278-2.166-4.613-5.652a29.869 29.869 0 01-.607-1.769 52.597 52.597 0 005.22-2.039 52.618 52.618 0 005.219 2.04 29.966 29.966 0 01-.607 1.768zm1.489-5.24a47.394 47.394 0 01-1.892-.678c.373-.204.745-.413 1.112-.621.382-.22.759-.444 1.131-.668-.107.673-.224 1.33-.351 1.967zm.856-6.519a58.902 58.902 0 01-6.963 4.007 60.829 60.829 0 01-3.542-1.881 60.718 60.718 0 01-3.42-2.126A57.91 57.91 0 0115.898 25c0-1.366.045-2.712.137-4.021a58.958 58.958 0 016.962-4.006 60.734 60.734 0 013.543 1.88 60.683 60.683 0 013.42 2.126c.091 1.315.137 2.66.137 4.021a57.63 57.63 0 01-.137 4.021zm11.62 6.672c-.524.907-2.074 1.432-4.25 1.432-1.402 0-3.023-.209-4.786-.611.367-1.743.647-3.594.836-5.515a51.628 51.628 0 004.398-3.507c.428.464.831.923 1.208 1.387 2.35 2.895 3.344 5.504 2.595 6.814zm-7.93-12.008c.54.433 1.06.872 1.56 1.315-.5.443-1.02.882-1.56 1.315a56.524 56.524 0 000-2.63zm5.331-2.564c-.377.459-.78.923-1.208 1.387A50.852 50.852 0 0033.375 19a51.074 51.074 0 00-.836-5.515c1.768-.402 3.39-.611 4.786-.611 2.176 0 3.725.52 4.25 1.432.755 1.31-.24 3.92-2.594 6.814z" fill="#86DAF7"/><path d="M23.003 28.695a3.695 3.695 0 100-7.39 3.695 3.695 0 000 7.39z" fill="#86DAF7"/></svg>