<svg height="24" width="21" xmlns="http://www.w3.org/2000/svg"><g fill="#74b943" fill-rule="evenodd"><path d="M10.48 23.812c-.305 0-.61-.08-.876-.236l-2.79-1.658c-.416-.234-.212-.317-.075-.365.556-.194.668-.239 1.261-.576.062-.035.144-.022.208.016l2.142 1.278a.274.274 0 00.259 0l8.353-4.845a.265.265 0 00.128-.227V7.513a.272.272 0 00-.13-.232l-8.35-4.84a.261.261 0 00-.257 0L2.005 7.283a.27.27 0 00-.132.23v9.686c0 .093.05.18.131.224l2.289 1.329c1.241.623 2.001-.111 2.001-.85V8.34c0-.135.109-.242.243-.242h1.06c.132 0 .242.107.242.242v9.564c0 1.665-.903 2.62-2.474 2.62-.483 0-.863 0-1.924-.526L1.25 18.73a1.775 1.775 0 01-.877-1.53V7.513c0-.63.335-1.217.876-1.53l8.354-4.85c.528-.3 1.23-.3 1.755 0l8.353 4.85c.541.314.878.9.878 1.53v9.686c0 .63-.337 1.215-.878 1.531l-8.353 4.846a1.75 1.75 0 01-.88.236"/><path d="M13.06 17.138c-3.655 0-4.421-1.686-4.421-3.1a.24.24 0 01.241-.242h1.08c.12 0 .222.087.24.206.163 1.105.65 1.662 2.86 1.662 1.76 0 2.51-.4 2.51-1.338 0-.54-.213-.942-2.948-1.211-2.286-.227-3.7-.735-3.7-2.572 0-1.694 1.421-2.703 3.803-2.703 2.676 0 4 .933 4.168 2.935a.247.247 0 01-.064.187.245.245 0 01-.176.077h-1.085a.24.24 0 01-.234-.19c-.26-1.162-.893-1.533-2.609-1.533-1.921 0-2.145.672-2.145 1.176 0 .61.264.788 2.858 1.133 2.567.341 3.787.824 3.787 2.637 0 1.829-1.518 2.876-4.165 2.876"/></g></svg>