<svg xmlns="http://www.w3.org/2000/svg" width="49" height="49"><g fill="none" stroke="#898989" stroke-linecap="round" stroke-linejoin="round" stroke-width="1.5"><path d="M23.05 48.25H7.3a6.3 6.3 0 01-6.3-6.3V7.3A6.3 6.3 0 017.3 1h15.75a6.3 6.3 0 016.3 6.3v4.725M1.001 38.8h12.6"/><path d="M48.012 33.343l-5.134-5.137a6.304 6.304 0 00-8.119-.674L31.31 30l-4.456-4.452a3.153 3.153 0 00-3.098-.933A3.146 3.146 0 1022.407 30l7.795 7.798-2.616.87a3.44 3.44 0 001.472 6.682l7.828-.87"/><path d="M18.333 34.395a9.446 9.446 0 01-4.6-9.824 9.451 9.451 0 0117.495-3.093"/></g></svg>