<svg width="28" height="28" fill="none" xmlns="http://www.w3.org/2000/svg"><path d="M27.5 23.75a3.75 3.75 0 01-3.75 3.75H4.25A3.75 3.75 0 01.5 23.75V4.25A3.75 3.75 0 014.25.5h19.5a3.75 3.75 0 013.75 3.75v19.5z" fill="#0288D1"/><path d="M5 10.25h3.75V23H5V10.25zm1.864-1.5h-.021C5.723 8.75 5 7.916 5 6.874 5 5.81 5.746 5 6.886 5s1.843.81 1.864 1.874c0 1.041-.724 1.876-1.886 1.876zM23 23h-3.75v-6.824c0-1.649-.919-2.774-2.394-2.774-1.126 0-1.735.76-2.03 1.493-.108.262-.076.988-.076 1.355V23H11V10.25h3.75v1.962c.54-.837 1.387-1.962 3.553-1.962 2.684 0 4.696 1.688 4.696 5.456L23 23z" fill="#fff"/></svg>