<svg width="50" height="50" fill="none" xmlns="http://www.w3.org/2000/svg"><path d="M45.605.098H4.395A4.4 4.4 0 000 4.492v41.016a4.4 4.4 0 004.395 4.394h41.21A4.4 4.4 0 0050 45.508V4.492A4.4 4.4 0 0045.605.098zm-41.21 2.93h41.21c.808 0 1.465.656 1.465 1.464v7.324H2.93V4.492c0-.808.657-1.465 1.465-1.465zm41.21 43.945H4.395a1.467 1.467 0 01-1.465-1.465V14.746h44.14v30.762c0 .807-.657 1.465-1.465 1.465z" fill="#C3C3C3"/><path d="M29.971 19.259a1.465 1.465 0 00-1.923.77L19.26 40.535a1.465 1.465 0 102.693 1.154l8.789-20.508a1.465 1.465 0 00-.77-1.923zm-12.616 4.826a1.465 1.465 0 00-2.06-.229l-7.323 5.86a1.465 1.465 0 000 2.287l7.324 5.86a1.465 1.465 0 001.83-2.288l-5.894-4.716 5.894-4.715a1.465 1.465 0 00.229-2.06zm24.673 5.631l-7.324-5.86a1.465 1.465 0 10-1.83 2.288l5.894 4.716-5.894 4.715a1.465 1.465 0 101.83 2.288l7.324-5.86a1.465 1.465 0 000-2.287zM7.422 8.887a1.465 1.465 0 100-2.93 1.465 1.465 0 000 2.93zm5.859 0a1.465 1.465 0 100-2.93 1.465 1.465 0 000 2.93zm5.859 0a1.465 1.465 0 100-2.93 1.465 1.465 0 000 2.93zm14.65 0h8.788a1.465 1.465 0 000-2.93H33.79a1.465 1.465 0 000 2.93z" fill="#C3C3C3"/></svg>