<svg width="38" height="38" fill="none" xmlns="http://www.w3.org/2000/svg"><path d="M14.25 16.65c-4.365 0-7.917-3.552-7.917-7.917S9.885.816 14.25.816s7.917 3.552 7.917 7.917-3.552 7.917-7.917 7.917zm0-13.459a5.548 5.548 0 00-5.542 5.542 5.548 5.548 0 005.542 5.542 5.548 5.548 0 005.542-5.542 5.548 5.548 0 00-5.542-5.542zm20.98 34.042h-8.71a2.774 2.774 0 01-2.77-2.771V28.92a2.774 2.774 0 012.77-2.77h8.71A2.774 2.774 0 0138 28.92v5.542a2.774 2.774 0 01-2.77 2.77zm-8.71-8.709a.396.396 0 00-.395.396v5.542c0 .218.177.396.396.396h8.708a.396.396 0 00.396-.396V28.92a.396.396 0 00-.396-.396h-8.708z" fill="#1F9FFC"/><path d="M33.646 28.525h-5.542a1.188 1.188 0 01-1.187-1.188v-3.562a3.964 3.964 0 013.958-3.959 3.964 3.964 0 013.958 3.959v3.562c0 .656-.532 1.188-1.187 1.188zm-4.354-2.375h3.166v-2.375c0-.873-.71-1.584-1.583-1.584-.872 0-1.583.711-1.583 1.584v2.375zm-9.5 7.916H1.187A1.188 1.188 0 010 32.88v-5.542c0-4.146 3.374-7.52 7.52-7.52h13.855a7.5 7.5 0 013.767 1.013 1.187 1.187 0 11-1.196 2.052 5.13 5.13 0 00-2.571-.69H7.521a5.152 5.152 0 00-5.146 5.145v4.354h17.417a1.188 1.188 0 010 2.375z" fill="#1F9FFC"/></svg>