<svg width="44" height="35" fill="none" xmlns="http://www.w3.org/2000/svg"><path d="M20.524 3.556a24.162 24.162 0 00-5.498 2.301 20.805 20.805 0 00-4.41 3.452c-1.236 1.279-2.216 2.664-2.94 4.155-.725 1.492-1.088 3.026-1.088 4.603 0 .937.192 1.768.576 2.493.383.682.83 1.023 1.342 1.023.554 0 1.002-.107 1.343-.32.383-.213.767-.448 1.15-.703.384-.256.81-.49 1.279-.703.511-.214 1.172-.32 1.981-.32.853 0 1.641.192 2.366.575a5.607 5.607 0 011.981 1.47c.597.64 1.066 1.407 1.407 2.302.34.895.511 1.854.511 2.876 0 1.108-.234 2.131-.703 3.069a7.573 7.573 0 01-1.918 2.429c-.767.682-1.683 1.236-2.749 1.662-1.022.383-2.13.575-3.324.575a9.725 9.725 0 01-4.41-1.023 12.248 12.248 0 01-3.58-2.876 14.743 14.743 0 01-2.43-4.22C.815 24.758.517 23.032.517 21.2c0-2.898.532-5.562 1.598-7.99 1.108-2.43 2.557-4.54 4.347-6.33a20.72 20.72 0 016.392-4.346 21.632 21.632 0 017.67-1.919v2.94zm23.077 0a24.495 24.495 0 00-5.434 2.301c-1.705.98-3.175 2.13-4.41 3.452-1.236 1.279-2.217 2.664-2.941 4.155-.725 1.492-1.087 3.026-1.087 4.603 0 .937.17 1.768.512 2.493.383.682.852 1.023 1.406 1.023.554 0 1.001-.107 1.342-.32a9.49 9.49 0 001.087-.703c.383-.256.81-.49 1.279-.703.51-.214 1.171-.32 1.981-.32.852 0 1.64.192 2.365.575a5.61 5.61 0 011.982 1.47c.597.64 1.065 1.407 1.406 2.302a8.01 8.01 0 01.512 2.876 6.778 6.778 0 01-.703 3.069 6.852 6.852 0 01-1.854 2.429c-.767.682-1.684 1.236-2.749 1.662a9.924 9.924 0 01-3.388.575 9.726 9.726 0 01-4.41-1.023 12.247 12.247 0 01-3.58-2.876 14.745 14.745 0 01-2.43-4.22c-.596-1.619-.895-3.345-.895-5.177 0-2.898.533-5.562 1.599-7.99 1.108-2.43 2.578-4.54 4.41-6.33a20.948 20.948 0 016.329-4.346A21.632 21.632 0 0143.6.615v2.94z" fill="#F0EFEF"/></svg>