<svg width="38" height="38" fill="none" xmlns="http://www.w3.org/2000/svg"><path d="M34.66.074H3.34A3.344 3.344 0 000 3.414v31.172a3.344 3.344 0 003.34 3.34h31.32a3.344 3.344 0 003.34-3.34V3.414a3.344 3.344 0 00-3.34-3.34zM3.34 2.301h31.32c.614 0 1.113.5 1.113 1.113V8.98H2.227V3.414c0-.614.499-1.113 1.113-1.113zm31.32 33.398H3.34c-.614 0-1.113-.5-1.113-1.113V11.207h33.546v23.379c0 .614-.499 1.113-1.113 1.113z" fill="#1F9FFC"/><path d="M22.778 14.637a1.113 1.113 0 00-1.461.584l-6.68 15.586a1.113 1.113 0 102.046.877l6.68-15.585a1.113 1.113 0 00-.585-1.462zm-9.588 3.667a1.113 1.113 0 00-1.565-.174l-5.567 4.453a1.114 1.114 0 000 1.739l5.567 4.453a1.113 1.113 0 101.39-1.738l-4.479-3.584 4.48-3.584c.48-.384.558-1.085.174-1.565zm18.752 4.28l-5.567-4.453a1.113 1.113 0 10-1.39 1.738l4.479 3.584-4.48 3.584a1.113 1.113 0 101.391 1.739l5.567-4.453a1.114 1.114 0 000-1.74zM5.64 6.754a1.113 1.113 0 100-2.227 1.113 1.113 0 000 2.227zm4.454 0a1.113 1.113 0 100-2.227 1.113 1.113 0 000 2.227zm4.453 0a1.113 1.113 0 100-2.227 1.113 1.113 0 000 2.227zm11.133 0h6.68a1.113 1.113 0 000-2.227h-6.68a1.113 1.113 0 000 2.227z" fill="#1F9FFC"/></svg>