<svg width="38" height="38" fill="none" xmlns="http://www.w3.org/2000/svg"><path d="M13.46 20.154a.594.594 0 00.393 0c1.62-.568 2.895-1.724 3.685-3.343.56-1.17.857-2.45.868-3.748a.595.595 0 00-.592-.594c-.022 0-2.238-.03-3.727-1.597a.593.593 0 00-.861 0C11.736 12.44 9.52 12.47 9.5 12.47a.594.594 0 00-.594.594 8.867 8.867 0 00.869 3.748c.79 1.619 2.064 2.775 3.685 3.343zm.196-8.055c1.252 1.07 2.723 1.405 3.537 1.51a7.725 7.725 0 01-.722 2.682c-.627 1.284-1.573 2.18-2.815 2.67-1.242-.49-2.188-1.387-2.814-2.67a7.725 7.725 0 01-.723-2.682c.815-.105 2.286-.44 3.537-1.51zm6.532 3.339H28.5a.594.594 0 000-1.188h-8.313a.594.594 0 000 1.188zm0-2.375H28.5a.594.594 0 000-1.188h-8.313a.594.594 0 000 1.188zm0 4.75H28.5a.594.594 0 000-1.188h-8.313a.594.594 0 000 1.188zm0 2.375H28.5a.594.594 0 000-1.188h-8.313a.594.594 0 000 1.188zM9.5 22.563h19a.594.594 0 000-1.188h-19a.594.594 0 000 1.188zm0 2.375h19a.594.594 0 000-1.188h-19a.594.594 0 000 1.188zm0 2.375h19a.594.594 0 000-1.188h-19a.594.594 0 000 1.188zm0 2.375h14.25a.594.594 0 000-1.188H9.5a.594.594 0 000 1.188zm12.469 1.187H16.03a.594.594 0 000 1.188h5.938a.594.594 0 000-1.188zm4.156-1.187a.594.594 0 100-1.188.594.594 0 000 1.188z" fill="#1F9FFC"/><path d="M33.25 3.563h-8.906v-.594a1.783 1.783 0 00-1.782-1.781h-7.125a1.783 1.783 0 00-1.78 1.78v.595H4.75a.594.594 0 00-.594.593v30.875a1.784 1.784 0 001.782 1.782h26.125a1.783 1.783 0 001.78-1.782V4.156a.594.594 0 00-.593-.593zM11.383 7.124a1.784 1.784 0 001.68 1.188h2.374v.593a.594.594 0 00.594.594h5.938a.594.594 0 00.593-.594v-.594h2.375a1.784 1.784 0 001.68-1.187h3.664V33.25H7.72V7.125h3.664zm5.242 1.188V7.125h4.75v1.188h-4.75zm8.906-1.782a.594.594 0 01-.593.594h-2.375V6.53a.594.594 0 00-.594-.593H16.03a.594.594 0 00-.593.593v.594h-2.376a.594.594 0 01-.593-.594V4.75H25.53v1.781zM14.844 2.97a.594.594 0 01.594-.594h7.124a.595.595 0 01.594.594v.594h-8.312V2.97zm17.812 32.06a.594.594 0 01-.593.594H5.936a.595.595 0 01-.593-.594V4.75h5.937v1.188H7.125a.594.594 0 00-.594.593v27.313a.594.594 0 00.594.593h23.75a.594.594 0 00.594-.593V6.53a.594.594 0 00-.594-.593h-4.156V4.75h5.937v30.281z" fill="#1F9FFC"/></svg>